<svg width="20" height="15" fill="none" xmlns="http://www.w3.org/2000/svg"><path fill-rule="evenodd" clip-rule="evenodd" d="M1.071 5.664a.91.91 0 01.747-.391h16.364a.909.909 0 01.851 1.228l-2.727 7.273a.909.909 0 01-.851.59H4.545a.91.91 0 01-.85-.59L.966 6.5a.91.91 0 01.104-.837zm2.06 1.427l2.045 5.455h9.649L16.87 7.09H3.13z" fill="#fff" fill-opacity=".8"/><path fill-rule="evenodd" clip-rule="evenodd" d="M8.75.927a.91.91 0 01.142 1.277L5.255 6.75a.91.91 0 11-1.42-1.136l3.637-4.546A.91.91 0 018.75.927zm2.5 0a.909.909 0 00-.142 1.277l3.637 4.546a.909.909 0 101.42-1.136l-3.637-4.546A.909.909 0 0011.25.927zM6.364 8a.91.91 0 01.909.91v1.817a.91.91 0 11-1.818 0V8.91A.91.91 0 016.364 8zm7.272 0a.91.91 0 01.91.91v1.817a.91.91 0 11-1.819 0V8.91a.91.91 0 01.91-.909zM10 8a.91.91 0 01.91.91v1.817a.91.91 0 11-1.819 0V8.91a.91.91 0 01.91-.909z" fill="#fff" fill-opacity=".8"/></svg>