<svg width="881" height="665" fill="none" xmlns="http://www.w3.org/2000/svg"><path d="M1.287 43.222c0-7.802 3.887-16.85 6.113-26.004 1.655 3.101 5.112 5.376 8.276 6.782 1.646.732 3.26 3 5.111 3 2.223 0 4.154.12 6 1.556 4.296 3.34 11.504 3.3 16.5 5.666 5.422 2.569 11.739 4.266 16 8.778 2.381 2.521 6.17 7.015 6.944 10.5.385 1.728.757 4.83 2.056 6 1.95 1.755 1.253 6.054 3 8.5 3.696 5.175 3.188 14.025 6 20 2.519 5.352 2.958 11.32 4.778 16.778C83.886 110.242 89.948 121 96.73 121c7.656 0-15.289 1-22.944 1h-17.61c-6.825 0-11.981-1.589-18.334-3.222-7.307-1.879-12.148-9.054-18.777-12-3.34-1.484-5.792-7.475-8.278-10.222-2.638-2.916-4.863-6.233-7-9.556-4.163-8.406-2.5-17.389-2.5-22.444V43.222z" fill="url(#paint0_linear_125_42)"/><path d="M820 109.231c-3.021-8.587-4.5-10.222-11-13.333l-8-3.39 3-3c1.295 0 1.907-1 3.25-1 1.247 0 2.35-.5 3.5-.5h6.056c4.172 0 7.819-.224 11.694 1.612 4.32 2.046 8.794 3.55 12.722 6.278 4.029 2.797 8.401 4.459 12.306 7.583 3.449 2.759 7.284 4.84 10.472 8.028 6.107 6.107 12.718 13.778 13.972 22.555.676 4.733 1.926 9.773 2.028 14.556.137 6.418-1.668 1.958-5 1.278-2.956-.604-5.588-2.719-8.472-3.584-2.601-.78-5.107-1.012-7.639-2.083-3.389-1.434-7.004-1.588-10.389-2.972-2.748-1.125-5.446-2.548-8.028-4-10.124-5.695-16.702-17.314-20.472-28.028z" fill="url(#paint1_linear_125_42)"/><g filter="url(#filter0_f_125_42)"><path d="M61.229 445.345c4.696-5.309 10.429-11.192 17.213-13.414 7.64-1.041 19.232-2.732 26.274-4.049 1.767-1.259 3.517-1.992 5.124-1.869 2.549.196-.155.939-5.124 1.869-5.01 3.568-10.167 11.365-12.649 15.885-.965 2.893-3.612 5.518-4.74 8.614-.849 2.334-1.44 4.792-2.632 7.002-.745 1.382-.523 3.329-1.514 4.505-2.044 2.424-.592 10.251-.592 13.38v16.504c0 7.099 2.866 16.357 6.78 22.324 4.382 6.682 10.374 12.423 17.212 16.471 4.511 2.67 9.189 5.954 14.58 6.444 6.972.633 14.261.033 21.261.033 12.581 0 25.263-2.923 36.006-9.6 3.656-2.273 6.094-5.362 8.293-8.943 1.126-1.832 2.944-3.416 3.687-5.457.462-1.27.592-5.363.592-4.011v2.86c0 2.638-1.014 5.467-1.646 7.989-2.369 9.467-5.567 17.635-11.387 25.71-7.389 10.251-21.657 14.137-32.517 19.2-9.029 4.209-17.954 4.208-27.642 4.208h-.267c-10.382 0-20.348-1.622-30.147-5.326-11.888-4.493-24.712-11.936-32.056-22.619-4.684-6.814-8.233-14.28-11.553-21.798-3.645-8.254-2.665-18.89-2.665-27.649 0-8.541.586-15.6 3.554-23.671 3.389-9.214 10.12-17.318 16.555-24.592z" fill="url(#paint2_linear_125_42)"/></g><g filter="url(#filter1_f_125_42)"><path d="M727.555 495.238c-13.668 17.635-22.779 38.202-26.555 60.19v11.33h12.038c33.489 0 69.153 2.231 98.114-17.742 14.934-10.3 24.149-26.762 30.056-43.55 3.645-10.359 4.278-21.44 5.626-32.219.643-5.144.373-10.748 2.163-15.697.216-.597 2.839-7.198 1.731-7.514-1.143-.327-2.3 1.668-3.147 2.006-14.872 5.949-29.372 8.498-45.477 8.498-14.423 0-29.856 2.118-43.353 7.435-12.217 4.813-23.367 17.161-31.196 27.263z" fill="url(#paint3_linear_125_42)"/></g><path d="M581.352 26.347c-4.851 6.613-8.001 14.258-9.175 22.374l.109 4.164 4.424-.117c12.305-.323 25.432.152 35.881-7.468 5.388-3.929 8.615-10.067 10.624-16.293 1.239-3.842 1.364-7.92 1.755-11.894.187-1.896.034-3.953.644-5.789.073-.221.973-2.672.563-2.778-.423-.109-.829.635-1.137.768-5.407 2.33-10.711 3.406-16.629 3.562-5.3.14-10.951 1.067-15.859 3.151-4.442 1.887-8.42 6.532-11.2 10.32z" fill="#D2FFCB"/><ellipse cx="301" cy="12" rx="5" ry="10" transform="rotate(21.266 301 12)" fill="#ED2C27"/><ellipse cx="106.887" cy="303.247" rx="7.581" ry="15.163" transform="rotate(-63.51 106.887 303.247)" fill="#ED2C27"/><g filter="url(#filter2_f_125_42)"><ellipse cx="438.507" cy="630.464" rx="9.602" ry="19.205" transform="rotate(28.056 438.507 630.464)" fill="#ED2C27"/></g><defs><linearGradient id="paint0_linear_125_42" x1=".959" y1="67.5" x2="98.273" y2="67.5" gradientUnits="userSpaceOnUse"><stop stop-color="#7FCA21" stop-opacity=".8"/><stop offset="1" stop-color="#105200"/></linearGradient><linearGradient id="paint1_linear_125_42" x1="801" y1="120.019" x2="880.007" y2="120.019" gradientUnits="userSpaceOnUse"><stop stop-color="#7FCA21" stop-opacity=".8"/><stop offset="1" stop-color="#105200"/></linearGradient><linearGradient id="paint2_linear_125_42" x1="41" y1="498.5" x2="191" y2="498.5" gradientUnits="userSpaceOnUse"><stop stop-color="#7FCA21" stop-opacity=".8"/><stop offset="1" stop-color="#105200"/></linearGradient><linearGradient id="paint3_linear_125_42" x1="701" y1="508.416" x2="851" y2="508.416" gradientUnits="userSpaceOnUse"><stop stop-color="#7FCA21" stop-opacity=".8"/><stop offset="1" stop-color="#105200"/></linearGradient><filter id="filter0_f_125_42" x="25" y="410" width="182" height="177" filterUnits="userSpaceOnUse" color-interpolation-filters="sRGB"><feFlood flood-opacity="0" result="BackgroundImageFix"/><feBlend in="SourceGraphic" in2="BackgroundImageFix" result="shape"/><feGaussianBlur stdDeviation="8" result="effect1_foregroundBlur_125_42"/></filter><filter id="filter1_f_125_42" x="685" y="434" width="182" height="148.832" filterUnits="userSpaceOnUse" color-interpolation-filters="sRGB"><feFlood flood-opacity="0" result="BackgroundImageFix"/><feBlend in="SourceGraphic" in2="BackgroundImageFix" result="shape"/><feGaussianBlur stdDeviation="8" result="effect1_foregroundBlur_125_42"/></filter><filter id="filter2_f_125_42" x="410.122" y="596.921" width="56.77" height="67.087" filterUnits="userSpaceOnUse" color-interpolation-filters="sRGB"><feFlood flood-opacity="0" result="BackgroundImageFix"/><feBlend in="SourceGraphic" in2="BackgroundImageFix" result="shape"/><feGaussianBlur stdDeviation="8" result="effect1_foregroundBlur_125_42"/></filter></defs></svg>