<svg width="80" height="65" fill="none" xmlns="http://www.w3.org/2000/svg"><path d="M19 21.23c-3.021-8.585-4.5-10.22-11-13.331l-8-3.39 3-3c1.295 0 1.907-1 3.25-1 1.247 0 2.35-.5 3.5-.5h6.056c4.172 0 7.819-.224 11.694 1.612 4.32 2.046 8.794 3.55 12.722 6.278 4.029 2.797 8.4 4.459 12.306 7.583 3.449 2.76 7.284 4.84 10.472 8.028 6.107 6.107 12.718 13.779 13.972 22.555.676 4.733 1.926 9.773 2.028 14.556.137 6.418-1.668 1.958-5 1.278-2.956-.604-5.588-2.719-8.472-3.584-2.6-.78-5.107-1.012-7.64-2.083-3.388-1.434-7.003-1.588-10.388-2.972-2.748-1.125-5.446-2.548-8.028-4C29.348 43.564 22.77 31.945 19 21.23z" fill="url(#paint0_linear_121_13)"/><defs><linearGradient id="paint0_linear_121_13" x1="0" y1="32.019" x2="79.007" y2="32.019" gradientUnits="userSpaceOnUse"><stop stop-color="#7FCA21" stop-opacity=".8"/><stop offset="1" stop-color="#105200"/></linearGradient></defs></svg>