<svg width="182" height="177" fill="none" xmlns="http://www.w3.org/2000/svg"><g filter="url(#filter0_f_121_15)"><path d="M36.229 35.345c4.696-5.308 10.429-11.192 17.213-13.414 7.64-1.04 19.232-2.732 26.274-4.05 1.768-1.258 3.517-1.991 5.124-1.867 2.548.195-.155.938-5.124 1.868-5.01 3.568-10.167 11.365-12.649 15.885-.965 2.893-3.612 5.518-4.74 8.614-.849 2.334-1.44 4.792-2.632 7.002-.745 1.382-.523 3.328-1.514 4.505-2.044 2.424-.592 10.25-.592 13.38v16.504c0 7.1 2.866 16.357 6.78 22.324 4.382 6.682 10.374 12.423 17.212 16.471 4.511 2.67 9.189 5.954 14.58 6.444 6.972.633 14.261.033 21.261.033 12.581 0 25.263-2.923 36.006-9.6 3.656-2.273 6.094-5.362 8.293-8.943 1.126-1.832 2.944-3.416 3.687-5.457.462-1.27.592-5.363.592-4.011v2.86c0 2.638-1.014 5.467-1.646 7.989-2.369 9.467-5.567 17.635-11.387 25.71-7.389 10.251-21.657 14.137-32.517 19.2-9.029 4.209-17.954 4.208-27.642 4.208h-.267c-10.382 0-20.348-1.622-30.147-5.326-11.888-4.493-24.712-11.936-32.056-22.619-4.684-6.814-8.233-14.28-11.553-21.798-3.645-8.254-2.665-18.89-2.665-27.649 0-8.54.586-15.6 3.554-23.671 3.389-9.214 10.12-17.318 16.555-24.592z" fill="url(#paint0_linear_121_15)"/></g><defs><linearGradient id="paint0_linear_121_15" x1="16" y1="88.5" x2="166" y2="88.5" gradientUnits="userSpaceOnUse"><stop stop-color="#7FCA21" stop-opacity=".8"/><stop offset="1" stop-color="#105200"/></linearGradient><filter id="filter0_f_121_15" x="0" y="0" width="182" height="177" filterUnits="userSpaceOnUse" color-interpolation-filters="sRGB"><feFlood flood-opacity="0" result="BackgroundImageFix"/><feBlend in="SourceGraphic" in2="BackgroundImageFix" result="shape"/><feGaussianBlur stdDeviation="8" result="effect1_foregroundBlur_121_15"/></filter></defs></svg>