<svg width="182" height="149" fill="none" xmlns="http://www.w3.org/2000/svg"><g filter="url(#filter0_f_121_16)"><path d="M42.554 61.238C28.887 78.873 19.776 99.44 16 121.428v11.33h12.038c33.489 0 69.153 2.231 98.114-17.742 14.934-10.3 24.149-26.762 30.056-43.55 3.645-10.359 4.278-21.44 5.626-32.22.643-5.143.373-10.747 2.163-15.696.216-.597 2.839-7.198 1.731-7.514-1.143-.327-2.3 1.668-3.147 2.006-14.872 5.95-29.372 8.498-45.477 8.498-14.423 0-29.856 2.118-43.353 7.435-12.217 4.813-23.367 17.16-31.197 27.263z" fill="url(#paint0_linear_121_16)"/></g><defs><linearGradient id="paint0_linear_121_16" x1="16" y1="74.416" x2="166" y2="74.416" gradientUnits="userSpaceOnUse"><stop stop-color="#7FCA21" stop-opacity=".8"/><stop offset="1" stop-color="#105200"/></linearGradient><filter id="filter0_f_121_16" x="0" y="0" width="182" height="148.832" filterUnits="userSpaceOnUse" color-interpolation-filters="sRGB"><feFlood flood-opacity="0" result="BackgroundImageFix"/><feBlend in="SourceGraphic" in2="BackgroundImageFix" result="shape"/><feGaussianBlur stdDeviation="8" result="effect1_foregroundBlur_121_16"/></filter></defs></svg>