<svg width="99" height="105" fill="none" xmlns="http://www.w3.org/2000/svg"><path d="M1.287 26.222C1.287 18.42 5.174 9.372 7.4.218 9.055 3.319 12.512 5.594 15.676 7c1.646.732 3.26 3 5.111 3 2.223 0 4.154.12 6 1.556 4.296 3.34 11.504 3.3 16.5 5.666 5.422 2.569 11.739 4.266 16 8.778 2.381 2.521 6.17 7.015 6.944 10.5.385 1.728.757 4.83 2.056 6 1.95 1.755 1.253 6.054 3 8.5 3.696 5.175 3.188 14.025 6 20 2.519 5.352 2.958 11.32 4.778 16.778C83.886 93.242 89.948 104 96.73 104c7.656 0-15.289 1-22.944 1h-17.61c-6.825 0-11.981-1.589-18.334-3.222-7.307-1.88-12.148-9.054-18.777-12-3.34-1.484-5.792-7.475-8.278-10.222-2.638-2.916-4.863-6.233-7-9.556-4.163-8.406-2.5-17.389-2.5-22.444V26.222z" fill="url(#paint0_linear_121_11)"/><defs><linearGradient id="paint0_linear_121_11" x1=".959" y1="50.5" x2="98.273" y2="50.5" gradientUnits="userSpaceOnUse"><stop stop-color="#7FCA21" stop-opacity=".8"/><stop offset="1" stop-color="#105200"/></linearGradient></defs></svg>